<?xml version="1.0" standalone="no"?>
<!-- Generator: Adobe Fireworks 10, Export SVG Extension by Aaron Beall (http://fireworks.abeall.com) . Version: 0.6.1  -->
<!DOCTYPE svg PUBLIC "-//W3C//DTD SVG 1.1//EN" "http://www.w3.org/Graphics/SVG/1.1/DTD/svg11.dtd">
<svg id="Untitled-Page%201" viewBox="0 0 220 61" style="background-color:#ffffff00" version="1.1"
	xmlns="http://www.w3.org/2000/svg" xmlns:xlink="http://www.w3.org/1999/xlink" xml:space="preserve"
	x="0px" y="0px" width="220px" height="61px"
>
	<g id="Layer%201">
		<g>
			<g>
				<path d="M 3.0938 50.8298 L 5.5734 50.8298 C 6.957 50.8298 7.5388 51.4886 7.5388 52.6924 C 7.5388 53.6231 7.0461 54.5256 5.6599 54.5256 L 3.0938 54.5256 L 3.0938 50.8298 ZM 0.0553 60.6612 L 3.1316 60.6612 L 3.1316 56.7618 L 5.5073 56.7618 C 9.6755 56.7618 10.5813 54.2846 10.5813 52.6737 C 10.5813 50.2821 9.3705 48.5882 6.0863 48.5882 L 0.0553 48.5882 L 0.0553 60.6612 Z" fill="#828282"/>
				<path d="M 16.3073 50.8298 L 19.0946 50.8298 C 20.0665 50.8445 20.7185 51.3373 20.7185 52.4554 C 20.7185 53.5749 20.0665 54.0676 19.0946 54.0837 L 16.3073 54.0837 L 16.3073 50.8298 ZM 13.2648 60.6612 L 16.3073 60.6612 L 16.3073 56.3199 L 18.2388 56.3199 L 20.6321 60.6612 L 24.0309 60.6612 L 21.2436 55.8111 C 22.7662 55.3706 23.7569 54.1172 23.7569 52.5545 C 23.7569 49.8442 22.0845 48.5882 19.3511 48.5882 L 13.2648 48.5882 L 13.2648 60.6612 Z" fill="#828282"/>
				<path d="M 35.1751 54.6247 C 35.1751 56.49 34.3206 58.4571 32.0638 58.4571 C 29.6705 58.4571 28.9524 56.3869 28.9524 54.6247 C 28.9524 51.9117 30.2847 50.795 32.0638 50.795 C 34.3206 50.795 35.1751 52.7259 35.1751 54.6247 ZM 38.2136 54.6247 C 38.2136 51.2342 35.9418 48.2507 32.0638 48.2507 C 28.183 48.2507 25.9113 51.2342 25.9113 54.6247 C 25.9113 58.0165 28.183 61 32.0638 61 C 35.9418 61 38.2136 58.0165 38.2136 54.6247 Z" fill="#828282"/>
				<path d="M 39.8577 58.2188 L 41.1224 58.2188 C 42.1456 58.2188 42.2671 57.7608 42.2671 56.9989 L 42.2671 48.5882 L 45.3083 48.5882 L 45.3083 57.9817 C 45.3083 59.9154 44.1447 60.6612 42.4034 60.6612 L 39.8577 60.6612 L 39.8577 58.2188 Z" fill="#828282"/>
				<path d="M 48.5033 60.6612 L 48.5033 48.5882 L 57.4594 48.5882 L 57.4594 50.9315 L 51.5458 50.9315 L 51.5458 53.1343 L 57.0666 53.1343 L 57.0666 55.471 L 51.5458 55.471 L 51.5458 58.3192 L 57.9697 58.3192 L 57.9697 60.6612 L 48.5033 60.6612 Z" fill="#828282"/>
				<path d="M 68.6359 52.608 C 68.2094 51.4886 67.1687 50.795 66.1077 50.795 C 64.4326 50.795 63.0989 51.9117 63.0989 54.6247 C 63.0989 56.3869 63.8157 58.4571 66.209 58.4571 C 67.0283 58.4571 68.2269 57.8465 68.7034 56.7618 L 71.1156 57.9135 C 70.0721 59.7948 68.2593 61 66.209 61 C 62.3309 61 60.0564 58.0165 60.0564 54.6247 C 60.0564 51.2342 62.1783 48.2507 65.97 48.2507 C 68.3606 48.2507 69.9345 49.405 71.0616 51.4029 L 68.6359 52.608 Z" fill="#828282"/>
				<path d="M 72.7043 48.5882 L 82.1045 48.5882 L 82.1045 50.9302 L 78.9243 50.9302 L 78.9243 60.6612 L 75.8818 60.6612 L 75.8818 50.9302 L 72.7043 50.9302 L 72.7043 48.5882 Z" fill="#828282"/>
				<path d="M 84.7852 48.5882 L 89.2478 48.5882 L 91.4021 57.5586 L 91.4345 57.5586 L 93.6563 48.5882 L 98.0649 48.5882 L 98.0649 60.6612 L 95.1938 60.6612 L 95.1938 51.285 L 95.1587 51.285 L 92.7492 60.6612 L 90.0671 60.6612 L 87.5875 51.285 L 87.5564 51.285 L 87.5564 60.6612 L 84.7852 60.6612 L 84.7852 48.5882 Z" fill="#828282"/>
				<path d="M 104.9854 56.5262 L 106.4904 51.5381 L 106.5242 51.5381 L 108.0266 56.5262 L 104.9854 56.5262 ZM 100.4041 60.6612 L 103.6531 60.6612 L 104.2673 58.7611 L 108.7622 58.7611 L 109.3791 60.6612 L 112.6403 60.6612 L 108.0441 48.5882 L 104.9017 48.5882 L 100.4041 60.6612 Z" fill="#828282"/>
				<path d="M 115.0497 48.5882 L 118.1287 48.5882 L 122.5547 56.3012 L 122.5871 56.3012 L 122.5871 48.5882 L 125.357 48.5882 L 125.357 60.6612 L 122.3158 60.6612 L 117.8533 53.0647 L 117.8209 53.0647 L 117.8209 60.6612 L 115.0497 60.6612 L 115.0497 48.5882 Z" fill="#828282"/>
				<path d="M 132.3464 56.5262 L 133.8487 51.5381 L 133.8865 51.5381 L 135.3875 56.5262 L 132.3464 56.5262 ZM 127.7678 60.6612 L 131.0141 60.6612 L 131.6282 58.7611 L 136.1205 58.7611 L 136.7373 60.6612 L 140.0013 60.6612 L 135.4078 48.5882 L 132.2627 48.5882 L 127.7678 60.6612 Z" fill="#828282"/>
				<path d="M 150.5798 52.3697 C 149.9832 51.3373 148.9938 50.7936 147.7101 50.7936 C 145.8487 50.7936 144.5825 51.98 144.5825 54.626 C 144.5825 56.9667 145.6408 58.4571 147.7101 58.4571 C 148.821 58.4571 150.2734 57.8117 150.4124 56.2691 L 147.7101 56.2691 L 147.7101 53.931 L 152.9731 53.931 L 152.9731 60.6612 L 150.6162 60.6612 L 150.6162 59.5779 C 149.8293 60.4751 148.5645 61 147.0797 61 C 143.4028 61 141.5427 58.3567 141.5427 54.6742 C 141.5427 50.9958 143.5391 48.2507 147.5062 48.2507 C 149.8969 48.2507 151.9148 49.3005 153.1107 51.2676 L 150.5798 52.3697 Z" fill="#828282"/>
				<path d="M 156.222 60.6612 L 156.222 48.5882 L 165.1769 48.5882 L 165.1769 50.9302 L 159.2606 50.9302 L 159.2606 53.1343 L 164.7841 53.1343 L 164.7841 55.471 L 159.2606 55.471 L 159.2606 58.3192 L 165.6898 58.3192 L 165.6898 60.6612 L 156.222 60.6612 Z" fill="#828282"/>
				<path d="M 168.4056 48.5882 L 172.8668 48.5882 L 175.0198 57.5586 L 175.0521 57.5586 L 177.278 48.5882 L 181.6838 48.5882 L 181.6838 60.6612 L 178.8141 60.6612 L 178.8114 51.285 L 178.7791 51.285 L 176.3696 60.6612 L 173.6848 60.6612 L 171.2092 51.285 L 171.1741 51.285 L 171.1741 60.6612 L 168.4056 60.6612 L 168.4056 48.5882 Z" fill="#828282"/>
				<path d="M 185.1542 60.6612 L 185.1542 48.5882 L 194.1104 48.5882 L 194.1104 50.9302 L 188.1968 50.9302 L 188.1968 53.1343 L 193.7176 53.1343 L 193.7176 55.471 L 188.1968 55.471 L 188.1968 58.3192 L 194.6233 58.3192 L 194.6233 60.6612 L 185.1542 60.6612 Z" fill="#828282"/>
				<path d="M 197.408 48.5882 L 200.4842 48.5882 L 204.9103 56.3012 L 204.944 56.3012 L 204.944 48.5882 L 207.7125 48.5882 L 207.7125 60.6612 L 204.6713 60.6612 L 200.2102 53.0647 L 200.1765 53.0647 L 200.1765 60.6612 L 197.408 60.6612 L 197.408 48.5882 Z" fill="#828282"/>
				<path d="M 210.2786 48.5882 L 219.6747 48.5882 L 219.6747 50.9302 L 216.4999 50.9302 L 216.4999 60.6612 L 213.4534 60.6612 L 213.4534 50.9302 L 210.2786 50.9302 L 210.2786 48.5882 Z" fill="#828282"/>
			</g>
			<g>
				<path d="M 55.5615 19.8892 L 60.869 19.8892 C 63.8333 19.8892 65.0792 21.3046 65.0792 23.885 C 65.0792 25.8802 64.0155 27.8058 61.0513 27.8058 L 55.5615 27.8058 L 55.5615 19.8892 ZM 49.0419 40.9555 L 55.633 40.9555 L 55.633 32.5983 L 60.7219 32.5983 C 69.6551 32.5983 71.5974 27.2956 71.5974 23.8462 C 71.5974 18.7256 68.9977 15.094 61.9678 15.094 L 49.0419 15.094 L 49.0419 40.9555 Z" fill="#df3128"/>
				<path d="M 81.3378 19.8865 L 87.3053 19.8865 C 89.3949 19.924 90.7826 20.9765 90.7826 23.3748 C 90.7826 25.7731 89.3949 26.8256 87.3053 26.8617 L 81.3378 26.8617 L 81.3378 19.8865 ZM 74.8209 40.9555 L 81.3378 40.9555 L 81.3378 31.6556 L 85.4736 31.6556 L 90.603 40.9555 L 97.8867 40.9555 L 91.9204 30.5683 C 95.1762 29.6242 97.3035 26.9327 97.3035 23.5917 C 97.3035 17.7788 93.7144 15.094 87.8534 15.094 L 74.8209 15.094 L 74.8209 40.9555 Z" fill="#df3128"/>
				<path d="M 119.9658 28.0227 C 119.9658 32.0212 118.1354 36.2312 113.303 36.2312 C 108.1763 36.2312 106.6376 31.8029 106.6376 28.0227 C 106.6376 22.2125 109.4938 19.8142 113.303 19.8142 C 118.1354 19.8142 119.9658 23.956 119.9658 28.0227 ZM 126.4841 28.0227 C 126.4841 20.7609 121.6125 14.3669 113.303 14.3669 C 104.9908 14.3669 100.1206 20.7609 100.1206 28.0227 C 100.1206 35.2872 104.9908 41.6812 113.303 41.6812 C 121.6125 41.6812 126.4841 35.2872 126.4841 28.0227 Z" fill="#df3128"/>
				<path d="M 129.8896 15.094 L 139.4451 15.094 L 144.0602 34.3083 L 144.1303 34.3083 L 148.8925 15.094 L 158.3372 15.094 L 158.3372 40.9555 L 152.1888 40.9555 L 152.1888 20.8681 L 152.1158 20.8681 L 146.9528 40.9555 L 141.2025 40.9555 L 135.8951 20.8681 L 135.8181 20.8681 L 135.8181 40.9555 L 129.8896 40.9555 L 129.8896 15.094 Z" fill="#df3128"/>
				<path d="M 163.2479 15.094 L 169.7635 15.094 L 169.7635 40.9555 L 163.2479 40.9555 L 163.2479 15.094 Z" fill="#df3128"/>
				<path d="M 174.816 15.094 L 181.4084 15.094 L 190.8924 31.6221 L 190.9639 31.6221 L 190.9639 15.094 L 196.895 15.094 L 196.895 40.9555 L 190.3781 40.9555 L 180.8213 24.6817 L 180.7511 24.6817 L 180.7511 40.9555 L 174.816 40.9555 L 174.816 15.094 Z" fill="#df3128"/>
				<path d="M 199.8619 15.094 L 220 15.0913 L 220 20.1061 L 213.1901 20.1061 L 213.1928 40.9555 L 206.6719 40.9555 L 206.6719 20.1061 L 199.8619 20.1061 L 199.8619 15.094 Z" fill="#df3128"/>
			</g>
			<g>
				<path d="M 0 0.0013 L 0 40.9555 L 41.3357 40.9555 L 41.3357 0 L 0 0.0013 Z" fill="#828282"/>
				<path d="M 12.1903 4.4109 L 6.2213 4.4109 C 5.2562 4.4109 4.472 5.1876 4.472 6.145 L 4.472 12.0704 C 4.472 13.0251 5.2562 13.7991 6.2213 13.7991 L 12.1903 13.7991 C 13.1554 13.7991 13.9397 13.0225 13.9397 12.0704 L 13.9397 6.145 C 13.9397 5.1876 13.1554 4.4109 12.1903 4.4109 Z" fill="#ffffff"/>
				<path d="M 23.6557 4.4109 L 17.6854 4.4109 C 16.719 4.4109 15.9374 5.1876 15.9374 6.145 L 15.9374 12.0704 C 15.9374 13.0225 16.719 13.7991 17.6854 13.7991 L 23.6557 13.7991 C 24.6195 13.7991 25.401 13.0225 25.401 12.065 L 25.401 6.145 C 25.401 5.1876 24.6195 4.4109 23.6557 4.4109 Z" fill="#ffffff"/>
				<path d="M 35.1171 4.4109 L 29.1481 4.4109 C 28.183 4.4109 27.3988 5.1876 27.3988 6.145 L 27.3988 12.065 C 27.3988 13.0225 28.183 13.7991 29.1481 13.7991 L 35.1171 13.7991 C 36.0835 13.7991 36.8664 13.0225 36.8664 12.065 L 36.8664 6.145 C 36.8664 5.1876 36.0835 4.4109 35.1171 4.4109 Z" fill="#df3128"/>
				<path d="M 12.1903 15.7836 L 6.2213 15.7836 C 5.2562 15.7836 4.472 16.5616 4.472 17.5177 L 4.472 23.4404 C 4.472 24.3992 5.2562 25.1732 6.2213 25.1732 L 12.1903 25.1732 C 13.1554 25.1732 13.9397 24.3992 13.9397 23.4404 L 13.9397 17.5177 C 13.9397 16.5616 13.1554 15.7836 12.1903 15.7836 Z" fill="#ffffff"/>
				<path d="M 23.6557 15.7836 L 17.6854 15.7836 C 16.719 15.7836 15.9374 16.5616 15.9374 17.5177 L 15.9374 23.4404 C 15.9374 24.3992 16.719 25.1732 17.6854 25.1732 L 23.6557 25.1732 C 24.6195 25.1732 25.401 24.3992 25.401 23.4404 L 25.401 17.515 C 25.401 16.5616 24.6195 15.7836 23.6557 15.7836 Z" fill="#ffffff"/>
				<path d="M 35.1171 15.7823 L 29.1481 15.7836 C 28.183 15.7836 27.3988 16.5616 27.3988 17.515 L 27.3988 23.4404 C 27.3988 24.3992 28.183 25.1732 29.1481 25.1732 L 35.1171 25.1732 C 36.0835 25.1732 36.8664 24.3952 36.8664 23.4404 L 36.8664 17.5164 C 36.8664 16.5616 36.0835 15.7823 35.1171 15.7823 Z" fill="#df3128"/>
				<path d="M 12.1903 27.1563 L 6.2213 27.1563 C 5.2562 27.1563 4.472 27.9357 4.472 28.8904 L 4.472 34.8145 C 4.472 35.7706 5.2562 36.5486 6.2213 36.5486 L 12.1903 36.5486 C 13.1554 36.5486 13.9397 35.7706 13.9397 34.8145 L 13.9397 28.8904 C 13.9397 27.933 13.1554 27.1563 12.1903 27.1563 Z" fill="#ffffff"/>
				<path d="M 23.6557 27.1563 L 17.6854 27.1563 C 16.719 27.1563 15.9374 27.9357 15.9374 28.8904 L 15.9374 34.8145 C 15.9374 35.7706 16.719 36.5486 17.6854 36.5486 L 23.6557 36.5486 C 24.6195 36.5486 25.401 35.7706 25.401 34.8145 L 25.401 28.8904 C 25.401 27.933 24.6195 27.1563 23.6557 27.1563 Z" fill="#df3128"/>
				<path d="M 35.1171 27.1563 L 29.1481 27.1563 C 28.183 27.1563 27.3988 27.933 27.3988 28.8904 L 27.3988 34.8145 C 27.3988 35.7706 28.183 36.5486 29.1481 36.5486 L 35.1171 36.5446 C 36.0835 36.5446 36.8664 35.7706 36.8664 34.8145 L 36.8664 28.8891 C 36.8664 27.933 36.0835 27.1563 35.1171 27.1563 Z" fill="#ffffff"/>
			</g>
		</g>
	</g>
</svg>